<?xml version="1.0" encoding="UTF-8" standalone="no"?>
<!-- Created with Inkscape (http://www.inkscape.org/) -->

<svg
   width="210mm"
   height="297mm"
   viewBox="0 0 210 297"
   version="1.1"
   id="svg1"
   inkscape:version="1.3 (1:1.3+202307231459+0e150ed6c4)"
   sodipodi:docname="mickey.svg"
   xmlns:inkscape="http://www.inkscape.org/namespaces/inkscape"
   xmlns:sodipodi="http://sodipodi.sourceforge.net/DTD/sodipodi-0.dtd"
   xmlns="http://www.w3.org/2000/svg"
   xmlns:svg="http://www.w3.org/2000/svg">
  <sodipodi:namedview
     id="namedview1"
     pagecolor="#ffffff"
     bordercolor="#999999"
     borderopacity="1"
     inkscape:showpageshadow="2"
     inkscape:pageopacity="0"
     inkscape:pagecheckerboard="0"
     inkscape:deskcolor="#d1d1d1"
     inkscape:document-units="mm"
     inkscape:zoom="0.72693603"
     inkscape:cx="396.87124"
     inkscape:cy="561.25984"
     inkscape:window-width="1920"
     inkscape:window-height="1016"
     inkscape:window-x="0"
     inkscape:window-y="27"
     inkscape:window-maximized="1"
     inkscape:current-layer="layer1" />
  <defs
     id="defs1" />
  <g
     inkscape:label="Layer 1"
     inkscape:groupmode="layer"
     id="layer1">
    <path
       id="path2"
       style="fill:none;stroke:#000000;stroke-width:1.1907"
       d="m 67.448593,58.259492 a 26.020714,27.529564 0 0 0 -26.02063,27.529586 26.020714,27.529564 0 0 0 12.59458,23.529832 53.004223,53.004223 0 0 0 -5.22655,22.81824 53.004223,53.004223 0 0 0 53.003997,53.004 53.004223,53.004223 0 0 0 53.00451,-53.004 53.004223,53.004223 0 0 0 -4.79815,-22.00589 26.020714,27.529564 0 0 0 12.64419,-23.558768 26.020714,27.529564 0 0 0 -26.02115,-27.529585 26.020714,27.529564 0 0 0 -25.215,20.982182 53.004223,53.004223 0 0 0 -9.6144,-0.892452 53.004223,53.004223 0 0 0 -8.925037,0.840258 26.020714,27.529564 0 0 0 -25.42636,-21.713403 z" />
  </g>
</svg>
